<svg width="157" height="26" viewBox="0 0 157 26" fill="none" xmlns="http://www.w3.org/2000/svg">
<path d="M43.166 18.1985V9.29219C43.166 7.59097 43.5608 6.25005 44.3505 5.26837C45.1412 4.28669 46.1304 3.79585 47.3171 3.79585C49.6451 3.79585 50.8091 5.49707 50.8091 8.89952V18.1985H54.889V7.8639C54.889 5.25866 54.3496 3.31148 53.2676 2.02019C52.1866 0.728905 50.6429 0.0837997 48.6353 0.0837997C47.3171 0.0837997 46.111 0.336232 45.0193 0.842176C43.9337 1.34207 42.9859 2.09844 42.2576 3.0461H42.1864C41.1292 1.07088 39.3601 0.0837997 36.8767 0.0837997C35.8314 0.0837997 34.8249 0.317893 33.8573 0.788237C32.8738 1.27075 32.0075 1.96216 31.3189 2.81417H31.265V0.351335H27.1851V18.1802H31.265V9.29219C31.265 7.59097 31.6663 6.25005 32.4678 5.26837C33.2693 4.28669 34.2942 3.79585 35.5412 3.79585C37.9037 3.79585 39.0861 5.49707 39.0861 8.89952V18.1985H43.166V18.1985ZM65.9291 18.4661C68.352 18.4661 70.241 17.5739 71.5948 15.7885H71.6488V18.1802H75.5496V0.351335H71.4697V2.4927H71.3985C70.0446 0.886405 68.2107 0.0837997 65.8935 0.0837997C64.7481 0.0756654 63.6132 0.302682 62.5591 0.7508C61.5049 1.19892 60.554 1.8586 59.765 2.68903C59.0045 3.49811 58.4058 4.47979 57.9656 5.63408C57.5205 6.82026 57.2971 8.07813 57.3065 9.34505C57.3065 10.7021 57.5255 11.9514 57.9645 13.0938C58.4047 14.2362 59.0045 15.1995 59.765 15.9849C60.5386 16.7793 61.4702 17.4026 62.4997 17.8145C63.5896 18.254 64.7551 18.4754 65.9302 18.4661H65.9291ZM66.571 14.754C65.0618 14.754 63.8331 14.2513 62.8827 13.2459C61.9333 12.2405 61.4576 10.9459 61.4576 9.36339C61.4576 7.6859 61.9474 6.33851 62.9269 5.32123C63.9075 4.30395 65.1276 3.79585 66.5882 3.79585C68.037 3.79585 69.2399 4.32768 70.1967 5.39243C71.1525 6.45826 71.6315 7.78191 71.6315 9.36339C71.6315 10.9459 71.1407 12.2405 70.1611 13.2459C69.1805 14.2513 67.9842 14.754 66.571 14.754V14.754ZM95.8186 18.1985V7.6859C95.8186 5.1044 95.2404 3.19174 94.0818 1.94792C92.9254 0.705172 91.3234 0.0837997 89.2813 0.0837997C88.1453 0.0776454 87.0212 0.314904 85.9845 0.779607C84.9533 1.24228 84.0399 1.93187 83.3124 2.79691H83.2585V0.350256H79.1786V18.1791H83.2585V9.22099C83.2585 7.5079 83.6771 6.17562 84.5142 5.22306C85.3524 4.27159 86.4711 3.79585 87.8724 3.79585C88.5143 3.79585 89.0634 3.87892 89.5208 4.04505C89.9782 4.21226 90.3795 4.48303 90.7236 4.85736C91.0688 5.23277 91.3234 5.74087 91.4895 6.38382C91.6556 7.02569 91.7387 7.81104 91.7387 8.73878V18.1985H95.8186V18.1985ZM106.841 18.4661C109.264 18.4661 111.152 17.5739 112.507 15.7885H112.561V18.1802H116.462V0.351335H112.382V2.4927H112.311C110.957 0.886405 109.122 0.0837997 106.806 0.0837997C105.66 0.0755174 104.525 0.302462 103.471 0.750585C102.417 1.19871 101.465 1.85847 100.676 2.68903C99.9169 3.49811 99.3171 4.47979 98.8769 5.63408C98.4322 6.82033 98.2091 8.0782 98.2189 9.34505C98.2189 10.7021 98.4379 11.9514 98.8769 13.0938C99.3171 14.2362 99.9169 15.1995 100.676 15.9849C101.45 16.7794 102.382 17.4027 103.412 17.8145C104.502 18.2539 105.667 18.4753 106.841 18.4661V18.4661ZM107.482 14.754C105.974 14.754 104.744 14.2513 103.795 13.2459C102.845 12.2405 102.369 10.9459 102.369 9.36339C102.369 7.6859 102.86 6.33851 103.839 5.32123C104.819 4.30395 106.04 3.79585 107.501 3.79585C108.949 3.79585 110.152 4.32768 111.108 5.39243C112.064 6.45826 112.543 7.78191 112.543 9.36339C112.543 10.9459 112.052 12.2405 111.072 13.2459C110.093 14.2513 108.895 14.754 107.482 14.754V14.754ZM128.054 25.6766C129.349 25.6766 130.508 25.5255 131.528 25.2213C132.55 24.9182 133.408 24.4953 134.103 23.9538C134.802 23.4081 135.389 22.7326 135.831 21.9645C136.294 21.1649 136.627 20.2973 136.819 19.3938C137.022 18.4661 137.123 17.4488 137.123 16.342V0.351335H133.043V2.22516H132.971C132.241 1.52612 131.378 0.979693 130.433 0.617791C129.481 0.249966 128.469 0.062663 127.448 0.0654606C125.821 0.0654606 124.361 0.451661 123.066 1.22514C121.772 1.99862 120.764 3.07307 120.046 4.44743C119.327 5.8207 118.968 7.3655 118.968 9.07859C118.968 10.8154 119.346 12.3559 120.1 13.7011C120.854 15.0453 121.89 16.0777 123.209 16.7972C124.527 17.5167 126.011 17.877 127.663 17.877C129.871 17.877 131.672 17.151 133.061 15.7001H133.132V17.5912C133.132 18.8533 132.668 19.8997 131.743 20.7326C130.815 21.5654 129.51 21.9818 127.823 21.9818C126.67 21.9818 125.658 21.8394 124.785 21.5535C123.912 21.2676 122.905 20.8221 121.765 20.2158L120.803 23.82C121.801 24.4155 122.924 24.8729 124.171 25.1944C125.418 25.5158 126.712 25.6766 128.054 25.6766V25.6766ZM128.197 14.1121C126.724 14.1121 125.51 13.6439 124.554 12.7097C123.597 11.7766 123.119 10.5241 123.119 8.95345C123.119 7.44317 123.588 6.21122 124.527 5.25866C125.465 4.30719 126.689 3.83145 128.197 3.83145C129.634 3.83145 130.831 4.30071 131.787 5.2414C132.743 6.18101 133.222 7.4011 133.222 8.89952C133.222 10.4109 132.755 11.6569 131.823 12.6385C130.891 13.6202 129.681 14.1111 128.197 14.1111V14.1121ZM148.786 18.4661C150.45 18.4661 151.914 18.1629 153.178 17.5556C154.443 16.9493 155.479 16.1284 156.287 15.0927L153.437 12.6482C152.32 14.0517 150.841 14.754 149 14.754C147.695 14.754 146.587 14.3905 145.677 13.6644C144.769 12.9395 144.184 11.946 143.922 10.6849H156.893C156.964 10.2566 157 9.71399 157 9.06025C157 7.3353 156.649 5.79481 155.948 4.43772C155.268 3.1032 154.216 1.99388 152.92 1.24348C151.602 0.47 150.081 0.0837997 148.359 0.0837997C147.18 0.0749644 146.01 0.30238 144.92 0.752638C143.852 1.19925 142.931 1.82062 142.158 2.61783C141.387 3.41504 140.781 4.38486 140.342 5.5262C139.903 6.6697 139.683 7.91244 139.683 9.25659C139.683 11.0776 140.081 12.6925 140.876 14.1024C141.672 15.5124 142.759 16.5922 144.137 17.342C145.514 18.0917 147.065 18.4661 148.786 18.4661ZM152.902 7.38276H143.994C144.279 6.24035 144.831 5.35683 145.65 4.73222C146.47 4.10762 147.444 3.79585 148.573 3.79585C149.713 3.79585 150.655 4.11732 151.397 4.75919C152.139 5.40214 152.641 6.27594 152.902 7.38276Z" fill="white"/>
<path fill-rule="evenodd" clip-rule="evenodd" d="M3.00546 11.1607C4.66461 11.1607 6.00983 12.5404 6.00983 14.2427C6.00983 15.944 4.66461 17.3248 3.00546 17.3248C1.34523 17.3248 0 15.944 0 14.2427C0 12.5404 1.34523 11.1607 3.00546 11.1607V11.1607ZM3.00546 0.0644531C4.66461 0.0644531 6.00875 1.44528 6.00875 3.1465C6.00875 4.8488 4.66353 6.22855 3.00438 6.22855C1.34523 6.22855 0 4.8488 0 3.1465C0 1.44528 1.34523 0.0644531 3.00546 0.0644531ZM13.8234 0.0644531C15.4836 0.0644531 16.8288 1.44528 16.8288 3.1465C16.8288 4.8488 15.4836 6.22855 13.8234 6.22855C12.1642 6.22855 10.819 4.8488 10.819 3.1465C10.819 1.44528 12.1642 0.0644531 13.8234 0.0644531Z" fill="#F3603C"/>
<path opacity="0.5" d="M13.8236 17.4483C15.4834 17.4483 16.829 16.0684 16.829 14.3662C16.829 12.6641 15.4834 11.2842 13.8236 11.2842C12.1637 11.2842 10.8181 12.6641 10.8181 14.3662C10.8181 16.0684 12.1637 17.4483 13.8236 17.4483Z" fill="#F3603C"/>
</svg>
